<svg width="235" height="193" viewBox="0 0 235 193" fill="none" xmlns="http://www.w3.org/2000/svg">
<g opacity="0.51">
<path d="M16.2641 179.617C21.1188 188.62 31.4223 192.485 31.4223 192.485C31.4223 192.485 33.8547 181.753 29 172.75C24.1453 163.746 13.8418 159.881 13.8418 159.881C13.8418 159.881 11.4094 170.614 16.2641 179.617Z" fill="#2F2E41"/>
<path d="M19.5997 176.655C28.3645 181.928 31.7401 192.402 31.7401 192.402C31.7401 192.402 20.9052 194.326 12.1404 189.053C3.3756 183.78 0 173.306 0 173.306C0 173.306 10.8349 171.382 19.5997 176.655Z" fill="#385DFF"/>
<path d="M217.669 26.1714H162.982V26.9526H217.669V26.1714Z" fill="#F2F2F2"/>
<path d="M178.607 19.1401H177.826V26.3665H178.607V19.1401Z" fill="#F2F2F2"/>
<path d="M202.437 19.1401H201.656V26.3665H202.437V19.1401Z" fill="#F2F2F2"/>
<path d="M234.858 120.31H180.172V121.091H234.858V120.31Z" fill="#F2F2F2"/>
<path d="M195.797 113.278H195.016V120.505H195.797V113.278Z" fill="#F2F2F2"/>
<path d="M219.623 113.278H218.842V120.505H219.623V113.278Z" fill="#F2F2F2"/>
<path d="M141.426 175.494H48.9336V174.829H140.76V142.557H56.7092L52.6261 134.05L53.2261 133.762L57.1279 141.891H141.426V175.494Z" fill="#2F2E41"/>
<path d="M61.2446 191.797C65.1034 191.797 68.2315 188.669 68.2315 184.81C68.2315 180.951 65.1034 177.823 61.2446 177.823C57.3859 177.823 54.2578 180.951 54.2578 184.81C54.2578 188.669 57.3859 191.797 61.2446 191.797Z" fill="#3F3D56"/>
<path d="M130.114 191.797C133.973 191.797 137.101 188.669 137.101 184.81C137.101 180.951 133.973 177.823 130.114 177.823C126.255 177.823 123.127 180.951 123.127 184.81C123.127 188.669 126.255 191.797 130.114 191.797Z" fill="#3F3D56"/>
<path d="M211.294 40.748C213.683 40.748 215.619 38.8116 215.619 36.4228C215.619 34.0341 213.683 32.0977 211.294 32.0977C208.905 32.0977 206.969 34.0341 206.969 36.4228C206.969 38.8116 208.905 40.748 211.294 40.748Z" fill="#3F3D56"/>
<path d="M151.318 131.577H47.3562L24.8613 58.0488H174.484L174.348 58.4814L151.318 131.577ZM47.8484 130.911H150.83L173.577 58.7142H25.7607L47.8484 130.911Z" fill="#2F2E41"/>
<path d="M143.204 127.751H51.8909L32.1328 62.5405H163.552L163.432 62.9245L143.204 127.751Z" fill="#F2F2F2"/>
<path d="M176.35 51.48L175.707 51.3093L180.098 34.7593H205.64V35.4249H180.61L176.35 51.48Z" fill="#2F2E41"/>
<path d="M167.008 80.3403H32.1309V81.0057H167.008V80.3403Z" fill="#2F2E41"/>
<path d="M159.284 104.855H39.6309V105.52H159.284V104.855Z" fill="#2F2E41"/>
<path d="M100.003 58.3818H99.3379V131.244H100.003V58.3818Z" fill="#2F2E41"/>
<path d="M129.794 58.3609L125.018 131.222L125.682 131.265L130.458 58.4044L129.794 58.3609Z" fill="#2F2E41"/>
<path d="M69.5606 58.36L68.8965 58.4033L73.6453 131.266L74.3095 131.223L69.5606 58.36Z" fill="#2F2E41"/>
<path d="M214.05 192.219H0V193H214.05V192.219Z" fill="#385DFF"/>
<path d="M78.2193 39.0615H23.5332V39.8428H78.2193V39.0615Z" fill="#F2F2F2"/>
<path d="M39.1582 32.0303H38.377V39.2567H39.1582V32.0303Z" fill="#F2F2F2"/>
<path d="M62.9844 32.0303H62.2031V39.2567H62.9844V32.0303Z" fill="#F2F2F2"/>
<path d="M152.436 0.390625H97.75V1.17186H152.436V0.390625Z" fill="#F2F2F2"/>
<path d="M137.594 0.976562H136.812V8.20294H137.594V0.976562Z" fill="#F2F2F2"/>
<path d="M113.766 0.976562H112.984V8.20294H113.766V0.976562Z" fill="#F2F2F2"/>
<path d="M59.4693 0H4.7832V0.781231H59.4693V0Z" fill="#F2F2F2"/>
<path d="M44.6269 0.585938H43.8457V7.81232H44.6269V0.585938Z" fill="#F2F2F2"/>
<path d="M20.8008 0.585938H20.0195V7.81232H20.8008V0.585938Z" fill="#F2F2F2"/>
</g>
</svg>
