<svg width="348" height="24" viewBox="0 0 348 24" fill="none" xmlns="http://www.w3.org/2000/svg">
<g clip-path="url(#clip0_1120_17099)">
<g clip-path="url(#clip1_1120_17099)">
<path opacity="0.07" d="M35 0H3C1.3 0 0 1.3 0 3V21C0 22.7 1.4 24 3 24H35C36.7 24 38 22.7 38 21V3C38 1.3 36.6 0 35 0Z" fill="black"/>
<path d="M35 1C36.1 1 37 1.9 37 3V21C37 22.1 36.1 23 35 23H3C1.9 23 1 22.1 1 21V3C1 1.9 1.9 1 3 1H35Z" fill="#5A31F4"/>
<path d="M21.3821 9.71305C21.3821 11.3811 20.2051 12.5711 18.5611 12.5711H17.0121C16.9865 12.5714 16.9616 12.5792 16.9403 12.5934C16.919 12.6076 16.9023 12.6276 16.8921 12.6511C16.8856 12.6666 16.8822 12.6832 16.8821 12.7001V14.8921C16.8821 14.9091 16.8787 14.9259 16.8722 14.9417C16.8656 14.9574 16.8561 14.9716 16.844 14.9836C16.8319 14.9956 16.8175 15.0051 16.8018 15.0115C16.786 15.0179 16.7691 15.0212 16.7521 15.0211H15.6681C15.6336 15.0211 15.6006 15.0074 15.5762 14.983C15.5518 14.9586 15.5381 14.9255 15.5381 14.8911V6.98605C15.5377 6.9603 15.5451 6.93503 15.5594 6.91359C15.5737 6.89216 15.5942 6.87558 15.6181 6.86605C15.6339 6.85943 15.6509 6.85603 15.6681 6.85605H18.5681C20.2051 6.85605 21.3821 8.04605 21.3821 9.71405V9.71305ZM20.0301 9.71305C20.0301 8.75505 19.3721 8.05505 18.4801 8.05505H17.0121C16.995 8.05505 16.9781 8.05841 16.9624 8.06495C16.9466 8.07148 16.9323 8.08106 16.9202 8.09313C16.9081 8.1052 16.8985 8.11953 16.892 8.1353C16.8855 8.15108 16.8821 8.16798 16.8821 8.18505V11.2351C16.8819 11.2522 16.8852 11.2691 16.8917 11.2849C16.8982 11.3007 16.9079 11.3151 16.9201 11.3271C16.9322 11.3392 16.9465 11.3488 16.9623 11.3553C16.9781 11.3618 16.995 11.3651 17.0121 11.3651H18.4801C19.3721 11.3701 20.0301 10.6701 20.0301 9.71305ZM21.7041 13.5041C21.6927 13.2479 21.746 12.9929 21.859 12.7627C21.9721 12.5326 22.1413 12.3346 22.3511 12.1871C22.7741 11.8711 23.4351 11.7071 24.4061 11.6731L25.4391 11.6371V11.3341C25.4391 10.7271 25.0291 10.4711 24.3711 10.4711C23.7131 10.4711 23.2961 10.7021 23.2011 11.0811C23.193 11.1077 23.1764 11.1309 23.1538 11.1472C23.1312 11.1634 23.1039 11.1718 23.0761 11.1711H22.0541C22.026 11.1714 21.9985 11.1626 21.9758 11.1461C21.953 11.1295 21.9363 11.106 21.9281 11.0791C21.9227 11.0612 21.9213 11.0425 21.9241 11.0241C22.0761 10.1261 22.8281 9.44405 24.4181 9.44405C26.1101 9.44405 26.7211 10.2271 26.7211 11.7201V14.8921C26.721 14.9092 26.7174 14.9262 26.7107 14.942C26.704 14.9577 26.6942 14.972 26.682 14.984C26.6697 14.996 26.6552 15.0055 26.6392 15.0118C26.6233 15.0182 26.6063 15.0213 26.5891 15.0211H25.5591C25.5246 15.0211 25.4916 15.0074 25.4672 14.983C25.4428 14.9586 25.4291 14.9255 25.4291 14.8911V14.6551C25.4294 14.6355 25.4238 14.6163 25.4129 14.6C25.402 14.5837 25.3863 14.5712 25.3681 14.5641C25.3501 14.5569 25.3303 14.5552 25.3113 14.5592C25.2923 14.5631 25.2749 14.5724 25.2611 14.5861C24.9511 14.9201 24.4531 15.1611 23.6541 15.1611C22.4791 15.1611 21.7041 14.5541 21.7041 13.5041ZM25.4391 12.8171V12.5711L24.1001 12.6411C23.3951 12.6771 22.9851 12.9671 22.9851 13.4571C22.9851 13.9011 23.3611 14.1471 24.0191 14.1471C24.9121 14.1471 25.4391 13.6671 25.4391 12.8171ZM27.7551 17.4171V16.4981C27.7554 16.4788 27.7599 16.4598 27.7684 16.4425C27.7768 16.4252 27.789 16.4101 27.8041 16.3981C27.8191 16.386 27.8365 16.3773 27.8551 16.3726C27.8738 16.3679 27.8932 16.3674 27.9121 16.3711C28.0701 16.4001 28.2301 16.4151 28.3911 16.4151C28.6669 16.4302 28.9397 16.3519 29.1656 16.193C29.3914 16.0341 29.5572 15.8037 29.6361 15.5391L29.7031 15.3281C29.7131 15.2996 29.7131 15.2685 29.7031 15.2401L27.5581 9.76905C27.5457 9.73903 27.5449 9.70543 27.556 9.67489C27.5671 9.64435 27.5893 9.61908 27.6181 9.60405C27.6372 9.59398 27.6585 9.58883 27.6801 9.58905H28.7201C28.7468 9.58912 28.7728 9.59728 28.7948 9.61246C28.8168 9.62763 28.8336 9.64911 28.8431 9.67405L30.2991 13.5331C30.3081 13.559 30.325 13.5814 30.3474 13.5972C30.3699 13.613 30.3967 13.6213 30.4241 13.6211C30.4515 13.621 30.4781 13.6126 30.5005 13.5968C30.5229 13.5811 30.5398 13.5588 30.5491 13.5331L31.8141 9.68505C31.8227 9.65852 31.8396 9.63545 31.8622 9.61925C31.8849 9.60304 31.9122 9.59456 31.9401 9.59505H33.0161C33.0484 9.59524 33.0795 9.60708 33.1038 9.62839C33.128 9.64971 33.1438 9.67906 33.1481 9.71105C33.1505 9.73239 33.1478 9.754 33.1401 9.77405L30.8451 15.8501C30.3171 17.2631 29.4121 17.6231 28.4151 17.6231C28.2259 17.6283 28.0369 17.606 27.8541 17.5571C27.8235 17.5495 27.7965 17.5313 27.7782 17.5056C27.7598 17.4799 27.7513 17.4485 27.7541 17.4171H27.7551ZM8.5701 6.40005C7.2056 6.38985 5.88852 6.90016 4.8871 7.82705C4.84449 7.86581 4.81789 7.91908 4.81253 7.97643C4.80716 8.03378 4.82342 8.09107 4.8581 8.13705L5.4761 8.97605C5.49613 9.00434 5.52214 9.02787 5.55228 9.04498C5.58243 9.06208 5.61598 9.07233 5.65053 9.075C5.68509 9.07768 5.71981 9.07271 5.75223 9.06044C5.78465 9.04818 5.81397 9.02893 5.8381 9.00405C6.19803 8.64665 6.62547 8.36444 7.09554 8.17387C7.56561 7.9833 8.06891 7.88818 8.5761 7.89405C10.6961 7.89405 11.8031 9.47805 11.8031 11.0441C11.8031 12.7441 10.6401 13.9421 8.9681 13.9651C7.6761 13.9651 6.7021 13.1151 6.7021 11.9911C6.70321 11.7068 6.7678 11.4264 6.89116 11.1704C7.01452 10.9143 7.19353 10.6891 7.4151 10.5111C7.46228 10.4724 7.49223 10.4166 7.49841 10.3559C7.5046 10.2952 7.48651 10.2345 7.4481 10.1871L6.7981 9.37205C6.77848 9.34699 6.75399 9.32617 6.72611 9.31082C6.69822 9.29547 6.66752 9.28592 6.63586 9.28275C6.60419 9.27957 6.5722 9.28283 6.54183 9.29234C6.51145 9.30184 6.48331 9.31739 6.4591 9.33805C6.061 9.65739 5.73918 10.0615 5.5171 10.5211C5.29582 10.9795 5.18063 11.482 5.1801 11.9911C5.1801 13.9261 6.8351 15.4431 8.9551 15.4551H8.9851C11.5021 15.4231 13.3221 13.5711 13.3221 11.0401C13.3221 8.79305 11.6551 6.40005 8.5701 6.40005Z" fill="white"/>
</g>
<g clip-path="url(#clip2_1120_17099)">
<path opacity="0.07" d="M97 0H65C63.3 0 62 1.3 62 3V21C62 22.7 63.4 24 65 24H97C98.7 24 100 22.7 100 21V3C100 1.3 98.6 0 97 0Z" fill="black"/>
<path d="M97 1C98.1 1 99 1.9 99 3V21C99 22.1 98.1 23 97 23H65C63.9 23 63 22.1 63 21V3C63 1.9 63.9 1 65 1H97Z" fill="white"/>
<path d="M90.3 10.1H90C89.6 11.1 89.3 11.6 89 13.1H90.9C90.6 11.6 90.6 10.9 90.3 10.1ZM93.2 16H91.5C91.4 16 91.4 16 91.3 15.9L91.1 15L91 14.8H88.6C88.5 14.8 88.4 14.8 88.4 15L88.1 15.9C88.1 16 88 16 88 16H85.9L86.1 15.5L89 8.7C89 8.2 89.3 8 89.8 8H91.3C91.4 8 91.5 8 91.5 8.2L92.9 14.7C93 15.1 93.1 15.4 93.1 15.8C93.2 15.9 93.2 15.9 93.2 16ZM79.8 15.7L80.2 13.9C80.3 13.9 80.4 14 80.4 14C81.1 14.3 81.8 14.5 82.5 14.4C82.7 14.4 83 14.3 83.2 14.2C83.7 14 83.7 13.5 83.3 13.1C83.1 12.9 82.8 12.8 82.5 12.6C82.1 12.4 81.7 12.2 81.4 11.9C80.2 10.9 80.6 9.5 81.3 8.8C81.9 8.4 82.2 8 83 8C84.2 8 85.5 8 86.1 8.2H86.2C86.1 8.8 86 9.3 85.8 9.9C85.3 9.7 84.8 9.5 84.3 9.5C84 9.5 83.7 9.5 83.4 9.6C83.2 9.6 83.1 9.7 83 9.8C82.8 10 82.8 10.3 83 10.5L83.5 10.9C83.9 11.1 84.3 11.3 84.6 11.5C85.1 11.8 85.6 12.3 85.7 12.9C85.9 13.8 85.6 14.6 84.8 15.2C84.3 15.6 84.1 15.8 83.4 15.8C82 15.8 80.9 15.9 80 15.6C79.9 15.8 79.9 15.8 79.8 15.7ZM76.3 16C76.4 15.3 76.4 15.3 76.5 15C77 12.8 77.5 10.5 77.9 8.3C78 8.1 78 8 78.2 8H80C79.8 9.2 79.6 10.1 79.3 11.2C79 12.7 78.7 14.2 78.3 15.7C78.3 15.9 78.2 15.9 78 15.9L76.3 16ZM67 8.2C67 8.1 67.2 8 67.3 8H70.7C71.2 8 71.6 8.3 71.7 8.8L72.6 13.2C72.6 13.3 72.6 13.3 72.7 13.4C72.7 13.3 72.8 13.3 72.8 13.3L74.9 8.2C74.8 8.1 74.9 8 75 8H77.1C77.1 8.1 77.1 8.1 77 8.2L73.9 15.5C73.8 15.7 73.8 15.8 73.7 15.9C73.6 16 73.4 15.9 73.2 15.9H71.7C71.6 15.9 71.5 15.9 71.5 15.7L69.9 9.5C69.7 9.3 69.4 9 69 8.9C68.4 8.6 67.3 8.4 67.1 8.4L67 8.2Z" fill="#142688"/>
</g>
<g clip-path="url(#clip3_1120_17099)">
<path opacity="0.07" d="M159 0H127C125.3 0 124 1.3 124 3V21C124 22.7 125.4 24 127 24H159C160.7 24 162 22.7 162 21V3C162 1.3 160.6 0 159 0Z" fill="black"/>
<path d="M159 1C160.1 1 161 1.9 161 3V21C161 22.1 160.1 23 159 23H127C125.9 23 125 22.1 125 21V3C125 1.9 125.9 1 127 1H159Z" fill="white"/>
<path d="M139 19C142.866 19 146 15.866 146 12C146 8.13401 142.866 5 139 5C135.134 5 132 8.13401 132 12C132 15.866 135.134 19 139 19Z" fill="#EB001B"/>
<path d="M147 19C150.866 19 154 15.866 154 12C154 8.13401 150.866 5 147 5C143.134 5 140 8.13401 140 12C140 15.866 143.134 19 147 19Z" fill="#F79E1B"/>
<path d="M146 11.9998C146 9.5998 144.8 7.4998 143 6.2998C141.2 7.5998 140 9.6998 140 11.9998C140 14.2998 141.2 16.4998 143 17.6998C144.8 16.4998 146 14.3998 146 11.9998Z" fill="#FF5F00"/>
</g>
<g clip-path="url(#clip4_1120_17099)">
<path d="M220.387 0H189.613C189.485 0 189.356 0 189.228 0.00067947C189.12 0.00158543 189.012 0.00271788 188.904 0.00566225C188.669 0.012004 188.432 0.0260463 188.199 0.0677205C187.966 0.107648 187.741 0.182074 187.529 0.288548C187.105 0.504411 186.76 0.849374 186.544 1.27378C186.437 1.48497 186.363 1.71095 186.323 1.94419C186.281 2.17679 186.267 2.41393 186.261 2.64903C186.258 2.75697 186.257 2.86493 186.256 2.97291C186.256 3.10065 186.256 3.22884 186.256 3.35726V20.6425C186.256 20.7709 186.256 20.8989 186.256 21.0273C186.257 21.1351 186.258 21.2432 186.261 21.3512C186.267 21.5858 186.281 21.8232 186.323 22.0556C186.363 22.2888 186.437 22.5148 186.544 22.726C186.651 22.9369 186.791 23.1296 186.958 23.2967C187.126 23.4642 187.318 23.6041 187.529 23.7112C187.744 23.8206 187.963 23.8902 188.2 23.9325C188.432 23.974 188.669 23.988 188.904 23.9943C189.012 23.9968 189.12 23.9982 189.228 23.9989C189.356 23.9998 189.485 23.9998 189.613 23.9998H220.387C220.515 23.9998 220.644 23.9998 220.772 23.9989C220.879 23.9984 220.987 23.9968 221.096 23.9943C221.331 23.988 221.568 23.974 221.801 23.9325C222.034 23.8925 222.26 23.818 222.471 23.7112C222.895 23.4951 223.24 23.1502 223.456 22.726C223.565 22.5115 223.635 22.2918 223.676 22.0556C223.719 21.8232 223.732 21.5858 223.739 21.3512C223.742 21.2432 223.743 21.1351 223.744 21.0273C223.744 20.8989 223.744 20.7709 223.744 20.6425V3.35749C223.744 3.22907 223.744 3.10087 223.744 2.97268C223.743 2.86478 223.741 2.75689 223.739 2.64903C223.732 2.41393 223.719 2.17679 223.676 1.94419C223.637 1.71091 223.563 1.4849 223.456 1.27378C223.24 0.849448 222.895 0.504513 222.471 0.288548C222.26 0.182184 222.034 0.107836 221.801 0.067947C221.568 0.0260463 221.331 0.0122305 221.096 0.00588874C220.988 0.00314533 220.88 0.00148432 220.772 0.000905959C220.644 0 220.515 0 220.387 0Z" fill="black"/>
<path d="M220.387 0.799805L220.766 0.800484C220.868 0.801164 220.971 0.802296 221.074 0.805014C221.254 0.809997 221.463 0.819736 221.659 0.854842C221.829 0.885418 221.972 0.931848 222.108 1.00161C222.382 1.1408 222.605 1.36345 222.743 1.63736C222.813 1.77326 222.859 1.91504 222.89 2.08649C222.924 2.27992 222.934 2.49033 222.939 2.67084C222.942 2.77276 222.943 2.87468 222.943 2.97886C222.945 3.10502 222.945 3.23095 222.945 3.35733V20.6426C222.945 20.769 222.945 20.8949 222.944 21.0235C222.943 21.1255 222.942 21.2274 222.939 21.3293C222.934 21.5096 222.924 21.72 222.889 21.9157C222.863 22.0713 222.814 22.2222 222.743 22.363C222.604 22.637 222.381 22.8597 222.107 22.9988C221.971 23.0681 221.829 23.1145 221.661 23.1448C221.461 23.1804 221.242 23.1901 221.078 23.1947C220.974 23.1969 220.871 23.1985 220.765 23.199C220.64 23.1999 220.513 23.1999 220.387 23.1999H189.608C189.483 23.1999 189.359 23.1999 189.232 23.199C189.13 23.1985 189.028 23.1972 188.926 23.1949C188.758 23.1904 188.539 23.1804 188.341 23.1451C188.184 23.119 188.033 23.0694 187.891 22.9979C187.755 22.9288 187.631 22.8386 187.524 22.7306C187.416 22.623 187.326 22.4989 187.257 22.363C187.186 22.2214 187.137 22.0698 187.111 21.9134C187.075 21.718 187.065 21.5085 187.061 21.3295C187.058 21.2272 187.057 21.1249 187.056 21.0226L187.056 20.7221V3.27806L187.056 2.97796C187.057 2.8755 187.058 2.77304 187.061 2.67061C187.066 2.49123 187.075 2.28173 187.111 2.08468C187.137 1.9286 187.186 1.77733 187.257 1.63601C187.326 1.50056 187.416 1.3769 187.524 1.26841C187.632 1.16049 187.756 1.07029 187.892 1.00115C188.034 0.930167 188.185 0.880844 188.341 0.854842C188.537 0.819736 188.747 0.809997 188.926 0.805014C189.029 0.802296 189.131 0.801164 189.233 0.800484L189.613 0.799805H220.387Z" fill="white"/>
<path d="M196.11 8.10171C196.428 7.70422 196.643 7.17039 196.586 6.625C196.121 6.6481 195.554 6.93189 195.225 7.32984C194.93 7.67048 194.669 8.22651 194.736 8.74902C195.259 8.79432 195.781 8.48811 196.11 8.10171Z" fill="black"/>
<path d="M196.581 8.85119C195.822 8.80589 195.177 9.28152 194.815 9.28152C194.453 9.28152 193.898 8.87384 193.298 8.88493C192.517 8.89626 191.793 9.33791 191.397 10.04C190.582 11.4443 191.182 13.528 191.974 14.6717C192.359 15.238 192.823 15.8608 193.434 15.8384C194.012 15.8158 194.238 15.4647 194.939 15.4647C195.641 15.4647 195.845 15.8384 196.456 15.8271C197.09 15.8157 197.486 15.2608 197.871 14.6946C198.313 14.0491 198.493 13.4263 198.504 13.3923C198.493 13.381 197.282 12.9165 197.271 11.5235C197.26 10.3571 198.222 9.80222 198.267 9.76802C197.724 8.96443 196.875 8.87384 196.58 8.85119" fill="black"/>
<path d="M204.142 7.27295C205.791 7.27295 206.939 8.40925 206.939 10.0635C206.939 11.7237 205.767 12.8659 204.101 12.8659H202.276V15.7686H200.957V7.27295H204.142ZM202.276 11.759H203.789C204.937 11.759 205.59 11.1409 205.59 10.0694C205.59 8.99812 204.937 8.38569 203.795 8.38569H202.276V11.759Z" fill="black"/>
<path d="M207.266 14.008C207.266 12.9188 208.096 12.2949 209.626 12.2006L211.269 12.1005V11.6294C211.269 10.9409 210.816 10.564 210.009 10.564C209.344 10.564 208.861 10.9053 208.761 11.4292H207.572C207.607 10.3285 208.643 9.52783 210.044 9.52783C211.551 9.52783 212.535 10.3167 212.535 11.5413V15.7683H211.316V14.7498H211.287C210.939 15.415 210.174 15.8329 209.344 15.8329C208.119 15.8329 207.266 15.1031 207.266 14.008ZM211.269 13.4606V12.9836L209.803 13.0778C208.979 13.1308 208.549 13.4368 208.549 13.9725C208.549 14.4907 208.996 14.8263 209.697 14.8263C210.592 14.8263 211.269 14.2551 211.269 13.4606Z" fill="black"/>
<path d="M213.655 18.0408V17.0225C213.738 17.034 213.938 17.0458 214.044 17.0458C214.626 17.0458 214.956 16.7989 215.156 16.1627L215.274 15.7861L213.043 9.60449H214.42L215.975 14.6203H216.004L217.558 9.60449H218.901L216.587 16.098C216.057 17.5876 215.451 18.0763 214.167 18.0763C214.067 18.0763 213.743 18.0646 213.655 18.0408Z" fill="black"/>
</g>
<g clip-path="url(#clip5_1120_17099)">
<path opacity="0.07" d="M283 0H251C249.3 0 248 1.3 248 3V21C248 22.7 249.4 24 251 24H283C284.7 24 286 22.7 286 21V3C286 1.3 284.6 0 283 0Z" fill="black"/>
<path d="M283 1C284.1 1 285 1.9 285 3V21C285 22.1 284.1 23 283 23H251C249.9 23 249 22.1 249 21V3C249 1.9 249.9 1 251 1H283Z" fill="white"/>
<path d="M266.093 11.9762V15.1762H265.075V7.27623H267.766C268.088 7.27077 268.409 7.3291 268.709 7.44786C269.008 7.56661 269.282 7.74346 269.513 7.96823C269.732 8.17262 269.909 8.41818 270.033 8.69087C270.157 8.96355 270.226 9.25802 270.236 9.55743C270.246 9.85685 270.197 10.1553 270.092 10.4358C269.987 10.7164 269.828 10.9734 269.623 11.1922L269.513 11.3082C269.043 11.7552 268.415 11.9982 267.766 11.9822L266.093 11.9762ZM266.093 8.24423V11.0322H267.791C268.168 11.0442 268.532 10.8972 268.796 10.6282C268.985 10.4314 269.112 10.1834 269.161 9.91506C269.21 9.64673 269.179 9.36992 269.071 9.11906C268.964 8.8682 268.786 8.65436 268.558 8.50415C268.331 8.35394 268.064 8.27398 267.791 8.27423L266.093 8.24423ZM272.577 9.59223C273.227 9.56223 273.863 9.78023 274.355 10.2052C274.8 10.6352 275.037 11.2352 275.005 11.8542V15.1882H274.036V14.4222H273.987C273.813 14.7095 273.567 14.9465 273.274 15.1098C272.981 15.2731 272.65 15.357 272.314 15.3532C271.766 15.371 271.231 15.1805 270.818 14.8202C270.622 14.6605 270.465 14.4582 270.359 14.2289C270.253 13.9995 270.2 13.749 270.205 13.4962C270.193 13.2408 270.243 12.9864 270.35 12.754C270.456 12.5216 270.617 12.318 270.818 12.1602C271.311 11.8054 271.909 11.6243 272.516 11.6452C273.033 11.6252 273.546 11.7382 274.006 11.9762V11.7682C274.009 11.5963 273.974 11.4258 273.901 11.2697C273.829 11.1136 273.722 10.976 273.589 10.8672C273.321 10.6239 272.971 10.4922 272.609 10.4992C272.346 10.4968 272.087 10.5613 271.857 10.6868C271.626 10.8122 271.431 10.9944 271.29 11.2162L270.395 10.6522C270.638 10.304 270.966 10.0238 271.348 9.83828C271.73 9.65274 272.153 9.56803 272.577 9.59223ZM271.29 13.5202C271.288 13.6497 271.317 13.7779 271.376 13.8933C271.435 14.0088 271.521 14.108 271.627 14.1822C271.85 14.3582 272.127 14.4512 272.412 14.4452C272.841 14.4442 273.252 14.2752 273.558 13.9732C273.863 13.6872 274.036 13.2882 274.036 12.8702C273.651 12.5965 273.183 12.4644 272.712 12.4962C272.346 12.4818 271.985 12.5848 271.682 12.7902C271.562 12.8706 271.463 12.9791 271.395 13.1064C271.327 13.2337 271.291 13.3758 271.29 13.5202ZM280.576 9.77023L277.186 17.5602H276.138L277.419 14.8322L275.195 9.77023H276.298L277.91 13.6552L279.479 9.77023H280.576Z" fill="#5F6368"/>
<path d="M261.986 11.2838C261.986 10.9758 261.962 10.6678 261.913 10.3638H257.623V12.1108H260.074C260.024 12.3884 259.919 12.6531 259.764 12.889C259.609 13.125 259.409 13.3273 259.174 13.4838V14.6178H260.638C261.083 14.1871 261.433 13.6678 261.665 13.0936C261.897 12.5194 262.007 11.9028 261.986 11.2838Z" fill="#4285F4"/>
<path d="M257.629 15.7209C258.735 15.7513 259.812 15.359 260.639 14.6239L259.173 13.4839C258.821 13.7098 258.422 13.8523 258.006 13.9008C257.59 13.9492 257.169 13.9022 256.774 13.7633C256.38 13.6245 256.022 13.3975 255.728 13.0995C255.434 12.8016 255.212 12.4406 255.079 12.0439H253.577V13.2139C253.953 13.967 254.531 14.6004 255.247 15.0432C255.962 15.486 256.787 15.7207 257.629 15.7209Z" fill="#34A853"/>
<path d="M255.079 12.05C254.889 11.4873 254.889 10.8777 255.079 10.315V9.14502H253.577C253.257 9.77647 253.09 10.4745 253.09 11.1825C253.09 11.8905 253.257 12.5886 253.577 13.22L255.079 12.05Z" fill="#FBBC04"/>
<path d="M257.629 8.44019C258.276 8.42837 258.901 8.6728 259.369 9.12019L260.669 7.82719C259.84 7.0492 258.741 6.62485 257.604 6.64419C256.767 6.64838 255.948 6.88419 255.237 7.32547C254.527 7.76674 253.952 8.39625 253.577 9.14419L255.079 10.3152C255.255 9.77527 255.595 9.304 256.052 8.96766C256.51 8.63132 257.061 8.44685 257.629 8.44019Z" fill="#EA4335"/>
</g>
<g clip-path="url(#clip6_1120_17099)">
<path opacity="0.07" d="M345 0H313C311.3 0 310 1.3 310 3V21C310 22.7 311.4 24 313 24H345C346.7 24 348 22.7 348 21V3C348 1.3 346.6 0 345 0Z" fill="black"/>
<path d="M345 1C346.1 1 347 1.9 347 3V21C347 22.1 346.1 23 345 23H313C311.9 23 311 22.1 311 21V3C311 1.9 311.9 1 313 1H345Z" fill="#006FCF"/>
<path d="M318.971 10.268L319.745 12.144H318.203L318.971 10.268ZM335.046 10.346H332.069V11.173H334.998V12.412H332.075V13.334H335.052V14.073L337.129 11.828L335.052 9.488L335.046 10.346ZM320.983 8.006H324.978L325.865 9.941L326.687 8H337.057L338.135 9.19L339.25 8H344.013L340.494 11.852L343.977 15.68H339.143L338.065 14.49L336.94 15.68H320.03L319.536 14.49H318.406L317.911 15.68H314L317.286 8H320.716L320.983 8.006ZM329.646 9.084H327.407L325.907 12.62L324.282 9.084H322.06V13.894L320 9.084H318.007L315.625 14.596H317.18L317.674 13.406H320.27L320.764 14.596H323.484V10.661L325.235 14.602H326.425L328.165 10.673V14.603H329.623L329.647 9.083L329.646 9.084ZM338.986 11.852L341.517 9.084H339.695L338.094 10.81L336.546 9.084H330.652V14.602H336.462L338.076 12.864L339.624 14.602H341.499L338.987 11.852H338.986Z" fill="white"/>
</g>
</g>
<defs>
<clipPath id="clip0_1120_17099">
<rect width="348" height="24" fill="white"/>
</clipPath>
<clipPath id="clip1_1120_17099">
<rect width="38" height="24" fill="white"/>
</clipPath>
<clipPath id="clip2_1120_17099">
<rect width="38" height="24" fill="white" transform="translate(62)"/>
</clipPath>
<clipPath id="clip3_1120_17099">
<rect width="38" height="24" fill="white" transform="translate(124)"/>
</clipPath>
<clipPath id="clip4_1120_17099">
<rect width="38" height="24" fill="white" transform="translate(186)"/>
</clipPath>
<clipPath id="clip5_1120_17099">
<rect width="38" height="24" fill="white" transform="translate(248)"/>
</clipPath>
<clipPath id="clip6_1120_17099">
<rect width="38" height="24" fill="white" transform="translate(310)"/>
</clipPath>
</defs>
</svg>
